<?xml version="1.0" standalone="no"?>
<!DOCTYPE svg PUBLIC "-//W3C//DTD SVG 20010904//EN"
 "http://www.w3.org/TR/2001/REC-SVG-20010904/DTD/svg10.dtd">
<svg version="1.0" xmlns="http://www.w3.org/2000/svg"
 width="442.000000pt" height="349.000000pt" viewBox="0 0 442.000000 349.000000"
 preserveAspectRatio="xMidYMid meet">

<g transform="translate(0.000000,349.000000) scale(0.100000,-0.100000)"
fill="#000000" stroke="none">
<path d="M1809 3191 c-39 -40 -40 -93 -2 -133 l27 -28 583 0 583 0 0 -1090 0
-1090 -581 0 -581 0 -29 -29 c-45 -46 -32 -123 26 -149 19 -9 181 -12 623 -12
l598 0 44 23 c52 26 78 59 90 113 12 52 12 2236 0 2288 -12 54 -38 87 -90 114
l-44 22 -609 0 -609 0 -29 -29z"/>
<path d="M1638 2786 c-21 -8 -48 -20 -61 -29 -13 -8 -181 -159 -374 -335 -391
-358 -397 -365 -396 -478 1 -106 17 -125 401 -476 197 -180 364 -325 394 -341
39 -21 63 -27 112 -27 78 1 130 24 182 83 48 54 64 102 64 186 l0 61 333 0
c327 0 333 1 382 24 55 25 110 81 131 132 11 26 14 105 14 361 0 296 -2 332
-19 368 -26 59 -63 97 -117 125 -49 25 -50 25 -386 28 l-338 3 0 67 c0 49 -6
80 -24 118 -52 112 -186 170 -298 130z m122 -216 c5 -10 10 -75 10 -144 0
-118 1 -126 22 -140 19 -14 76 -16 412 -16 348 0 391 -2 408 -17 17 -15 18
-38 18 -303 0 -231 -3 -290 -14 -306 -14 -18 -33 -19 -421 -24 -346 -4 -407
-7 -415 -20 -5 -8 -10 -71 -10 -140 0 -137 -11 -170 -54 -170 -16 0 -125 93
-370 316 -382 348 -375 339 -313 398 179 167 652 592 665 597 21 8 48 -5 62
-31z"/>
</g>
</svg>
