<?xml version="1.0" standalone="no"?>
<!DOCTYPE svg PUBLIC "-//W3C//DTD SVG 20010904//EN"
 "http://www.w3.org/TR/2001/REC-SVG-20010904/DTD/svg10.dtd">
<svg version="1.0" xmlns="http://www.w3.org/2000/svg"
 width="230.000000pt" height="205.000000pt" viewBox="0 0 230.000000 205.000000"
 preserveAspectRatio="xMidYMid meet">

<g transform="translate(0.000000,205.000000) scale(0.100000,-0.100000)"
fill="#eee" stroke="none">
<path d="M212 1900 l-22 -21 0 -824 0 -824 24 -18 c17 -14 142 -43 435 -102
347 -69 414 -80 433 -70 37 20 47 41 48 97 l0 52 210 0 c211 0 211 0 235 25
l25 24 0 266 0 266 -25 24 c-29 30 -64 32 -98 4 l-27 -20 -2 -212 -3 -212
-157 -3 -158 -3 0 644 c0 627 -1 644 -20 664 -18 20 -100 49 -232 84 -26 7
-44 16 -39 19 5 3 144 4 310 2 l301 -3 0 -214 0 -214 27 -21 c33 -26 79 -21
106 11 15 19 17 49 17 288 0 267 0 268 -23 289 l-23 22 -660 0 c-651 0 -661 0
-682 -20z"/>
<path d="M1711 1353 c-11 -10 -24 -32 -27 -50 -6 -29 -1 -38 56 -98 l63 -65
-215 0 c-222 0 -270 -7 -288 -40 -17 -32 -11 -75 13 -98 23 -21 31 -22 257
-22 l234 0 -56 -57 c-31 -32 -59 -68 -63 -81 -17 -59 46 -116 103 -93 16 7 85
69 155 140 173 174 173 159 -11 343 -118 118 -142 138 -169 138 -17 0 -40 -8
-52 -17z"/>
</g>
</svg>
