<?xml version="1.0" standalone="no"?>
<!DOCTYPE svg PUBLIC "-//W3C//DTD SVG 20010904//EN"
 "http://www.w3.org/TR/2001/REC-SVG-20010904/DTD/svg10.dtd">
<svg version="1.0" xmlns="http://www.w3.org/2000/svg"
 width="202.000000pt" height="199.000000pt" viewBox="0 0 202.000000 199.000000"
 preserveAspectRatio="xMidYMid meet">

<g transform="translate(0.000000,199.000000) scale(0.100000,-0.100000)"
fill="#eee" stroke="none">
<path d="M292 1840 c-19 -12 -41 -38 -52 -63 -19 -40 -20 -72 -20 -629 l0
-588 -25 0 c-31 0 -40 -31 -30 -96 5 -34 17 -57 45 -88 l39 -41 479 -3 480 -3
31 27 c17 14 35 40 39 57 l8 32 87 3 87 3 0 -83 c0 -65 4 -90 20 -115 24 -40
54 -46 189 -41 136 4 145 12 149 143 l4 95 29 0 c39 0 76 37 85 85 3 20 4 92
2 160 -6 161 -20 189 -135 264 -46 30 -82 56 -80 57 1 2 34 8 72 14 38 6 73
16 77 23 4 7 8 40 8 74 0 88 -7 93 -135 93 l-103 0 -26 78 c-15 43 -33 87 -41
99 -27 39 -76 53 -184 53 l-101 0 0 60 0 59 83 3 82 3 3 108 3 108 -35 35 -34
34 -534 0 c-517 0 -534 -1 -566 -20z m941 -372 c-2 -189 -4 -502 -5 -696 -3
-337 -4 -354 -22 -368 -11 -8 -30 -14 -41 -14 -37 0 -54 30 -57 100 l-3 65
-410 5 -410 5 -3 580 c-1 398 1 588 9 606 9 24 30 40 69 52 8 3 209 6 445 6
l430 1 -2 -342z m155 320 c7 -7 12 -42 12 -85 l0 -73 -55 0 -55 0 0 66 c0 83
11 104 53 104 18 0 38 -5 45 -12z m126 -420 c18 -17 37 -63 70 -166 l45 -144
-55 -24 c-47 -21 -70 -24 -169 -24 l-115 0 0 190 0 190 99 0 c90 0 102 -2 125
-22z m-50 -440 c-16 -53 -63 -145 -81 -161 -11 -10 -37 -21 -57 -24 l-36 -6 0
107 0 106 91 0 c88 0 90 0 83 -22z m406 -161 c0 -23 -8 -41 -26 -58 -23 -22
-34 -24 -112 -24 l-87 0 -3 28 c-2 20 5 35 27 57 28 29 33 30 115 30 l86 0 0
-33z m-820 -301 c0 -24 3 -51 6 -60 6 -14 -32 -16 -383 -16 -430 0 -421 -1
-443 65 -6 19 -9 39 -5 45 4 6 148 10 416 10 l409 0 0 -44z m622 -43 c4 -37
49 -41 58 -5 11 48 25 25 28 -46 2 -50 -1 -79 -10 -89 -11 -14 -14 -12 -18 13
-4 23 -10 29 -30 29 -20 0 -26 -6 -28 -27 -3 -23 -8 -28 -32 -28 -24 0 -29 5
-32 28 -2 21 -8 27 -28 27 -20 0 -26 -6 -30 -30 -6 -29 -6 -30 -18 -8 -18 32
-16 153 2 153 8 0 16 -10 18 -22 4 -28 45 -38 53 -14 3 9 7 23 10 31 2 8 15
15 29 15 19 0 25 -6 28 -27z"/>
<path d="M352 1738 c-12 -12 -17 -124 -6 -152 5 -14 51 -16 409 -16 358 0 404
2 409 16 11 28 6 140 -6 152 -17 17 -789 17 -806 0z m758 -78 l0 -30 -355 0
-355 0 0 30 0 30 355 0 355 0 0 -30z"/>
<path d="M497 1473 c-13 -12 -7 -41 9 -47 33 -13 141 -6 154 9 24 29 -5 45
-85 45 -39 0 -75 -3 -78 -7z"/>
<path d="M734 1465 c-4 -8 -4 -22 0 -30 4 -13 37 -15 209 -15 214 0 236 4 221
44 -5 14 -31 16 -215 16 -177 0 -211 -2 -215 -15z"/>
<path d="M344 1345 c-4 -8 -1 -22 6 -30 10 -12 47 -15 205 -15 107 0 200 3
209 6 9 3 16 17 16 30 l0 24 -215 0 c-183 0 -216 -2 -221 -15z"/>
<path d="M846 1344 c-14 -37 10 -44 159 -44 114 0 145 3 155 15 7 8 10 22 6
30 -4 12 -31 15 -160 15 -133 0 -155 -2 -160 -16z"/>
<path d="M344 1225 c-13 -32 7 -35 207 -35 l199 0 0 25 0 25 -200 0 c-166 0
-202 -2 -206 -15z"/>
<path d="M875 1226 c-50 -22 -101 -87 -114 -144 -6 -28 -9 -57 -7 -64 3 -7 7
-25 10 -40 3 -14 22 -47 41 -72 34 -45 34 -47 37 -158 3 -109 4 -113 25 -116
13 -2 36 6 52 17 36 26 46 26 82 0 16 -11 39 -19 52 -17 21 3 22 7 25 117 l3
114 34 40 c117 137 24 338 -156 337 -30 -1 -67 -7 -84 -14z m162 -66 c63 -38
88 -142 47 -197 -69 -92 -180 -93 -241 -3 -45 65 -20 168 50 207 34 19 107 16
144 -7z"/>
<path d="M936 1138 c-20 -34 -39 -97 -32 -113 3 -8 12 -15 21 -15 12 0 15 -10
13 -42 -3 -38 0 -43 20 -46 18 -3 26 4 38 34 9 21 18 53 21 72 5 28 2 34 -16
39 -19 5 -21 10 -15 40 5 25 3 38 -7 44 -21 13 -27 11 -43 -13z"/>
<path d="M350 1115 c-7 -8 -10 -22 -6 -30 4 -12 31 -15 160 -15 136 0 155 2
160 17 14 34 -20 43 -165 43 -109 0 -139 -3 -149 -15z"/>
<path d="M391 938 c-42 -55 -52 -75 -44 -87 18 -29 39 -22 73 25 l33 47 24
-47 c26 -52 38 -55 77 -25 l27 21 23 -21 c12 -11 27 -21 32 -21 12 0 64 48 64
59 0 16 -30 33 -46 27 -9 -3 -28 3 -44 14 -34 24 -38 24 -62 3 -10 -9 -20 -14
-22 -12 -2 2 -15 23 -30 47 -14 23 -32 42 -39 42 -7 0 -37 -32 -66 -72z"/>
<path d="M344 755 c-4 -8 -1 -22 6 -30 10 -12 43 -15 171 -15 141 0 159 2 167
18 20 39 7 42 -169 42 -142 0 -171 -2 -175 -15z"/>
</g>
</svg>
