<?xml version="1.0" standalone="no"?>
<!DOCTYPE svg PUBLIC "-//W3C//DTD SVG 20010904//EN"
 "http://www.w3.org/TR/2001/REC-SVG-20010904/DTD/svg10.dtd">
<svg version="1.0" xmlns="http://www.w3.org/2000/svg"
 width="392.000000pt" height="314.000000pt" viewBox="0 0 392.000000 314.000000"
 preserveAspectRatio="xMidYMid meet">

<g transform="translate(0.000000,314.000000) scale(0.100000,-0.100000)"
fill="#000000" stroke="none">
<path d="M914 2559 c-211 -20 -395 -192 -435 -404 -23 -122 7 -268 73 -363
l33 -47 5 -467 5 -466 24 -26 24 -26 339 0 338 0 0 -31 c0 -70 47 -90 102 -44
31 26 50 24 78 -9 31 -39 90 -10 90 43 0 21 1 21 38 -4 70 -47 116 -42 201 20
31 23 43 25 137 25 l104 0 0 -123 c0 -174 -25 -161 314 -165 301 -3 332 -1
341 29 15 47 2 49 -296 49 l-279 0 0 520 0 520 400 0 400 0 0 -520 0 -520 -48
0 c-51 0 -72 -12 -72 -42 0 -27 37 -41 101 -36 107 8 99 -43 99 598 0 652 12
592 -121 599 l-79 3 0 220 0 219 -25 24 c-18 18 -35 25 -65 25 -28 0 -40 4
-40 14 0 8 -10 22 -22 30 -19 14 -77 16 -428 16 -250 0 -419 -4 -442 -11 -21
-5 -50 -20 -65 -33 l-27 -23 -43 30 c-38 28 -52 31 -133 35 l-90 4 -20 45
c-41 94 -80 124 -110 87 -11 -13 -7 -27 24 -87 47 -91 63 -181 48 -267 -41
-228 -224 -373 -453 -357 -270 18 -450 283 -370 545 74 244 359 369 586 257
64 -31 91 -32 101 -3 20 64 -181 133 -342 117z m715 -435 c50 -36 51 -44 51
-619 l0 -535 -440 0 -440 0 0 311 0 310 23 -7 c93 -30 176 -31 282 -4 62 16
111 20 240 20 166 0 185 4 185 42 0 29 -33 38 -135 38 l-97 0 33 35 c31 33 36
34 113 37 l81 3 0 30 c0 29 -2 30 -52 33 -29 2 -53 4 -53 6 0 2 5 17 11 35 8
23 17 31 36 31 13 0 33 5 44 10 34 19 18 70 -23 70 -15 0 -17 10 -17 85 l0 85
67 0 c46 0 75 -5 91 -16z m1001 -219 l0 -234 -259 -3 c-301 -3 -301 -4 -301
-89 l0 -48 -82 -3 c-79 -3 -83 -4 -86 -27 -6 -37 22 -51 100 -51 l68 0 0 -35
0 -34 -82 -3 -83 -3 0 -30 0 -30 83 -3 82 -3 0 -34 0 -35 -73 0 c-78 0 -97 -9
-97 -46 0 -28 17 -34 101 -34 l69 0 0 -95 0 -95 -160 0 -160 0 0 551 0 551 34
34 34 34 406 0 406 0 0 -235z m120 -30 c0 -198 -1 -205 -20 -205 -19 0 -20 7
-20 205 0 198 1 205 20 205 19 0 20 -7 20 -205z m-1430 -1010 l0 -25 -205 0
-205 0 0 25 0 25 205 0 205 0 0 -25z m190 -35 l0 -59 -29 16 c-27 16 -30 16
-55 0 l-26 -17 0 60 0 60 55 0 55 0 0 -60z m560 35 c0 -25 0 -25 -97 -25 -116
0 -158 -10 -208 -50 -21 -17 -43 -30 -50 -30 -7 0 -29 13 -50 30 -20 16 -45
32 -56 35 -13 4 -19 16 -19 36 l0 29 240 0 240 0 0 -25z"/>
<path d="M962 1518 c-18 -18 -14 -46 7 -58 12 -6 117 -10 271 -10 154 0 259 4
271 10 21 12 25 40 7 58 -17 17 -539 17 -556 0z"/>
<path d="M953 1364 c-3 -9 -2 -24 4 -33 9 -14 43 -16 283 -16 240 0 274 2 283
16 6 9 7 24 4 33 -6 14 -36 16 -287 16 -251 0 -281 -2 -287 -16z"/>
<path d="M968 1229 c-21 -12 -23 -40 -6 -57 17 -17 359 -17 376 0 18 18 14 46
-7 58 -26 13 -340 13 -363 -1z"/>
<path d="M1913 1963 c-20 -7 -15 -51 6 -63 12 -6 118 -10 275 -10 218 0 257 2
270 16 9 8 16 21 16 28 0 33 -22 36 -289 35 -147 0 -272 -3 -278 -6z"/>
<path d="M1904 1806 c-3 -8 -4 -23 -2 -33 3 -17 21 -18 282 -18 249 0 280 2
289 17 8 12 7 21 -2 32 -12 14 -50 16 -288 16 -229 0 -275 -2 -279 -14z"/>
<path d="M1615 2524 c-22 -8 -73 -26 -113 -40 -79 -28 -97 -48 -83 -87 8 -21
30 -32 133 -66 l123 -41 417 0 c365 0 419 2 432 16 9 8 16 21 16 28 0 34 -18
36 -432 36 l-408 0 0 45 0 45 540 0 540 0 0 -45 0 -45 -58 0 c-60 0 -82 -11
-82 -42 0 -30 35 -38 170 -38 193 0 220 16 220 130 0 55 -3 65 -29 91 l-29 29
-659 -1 c-543 0 -665 -3 -698 -15z m1335 -109 l0 -45 -45 0 -45 0 0 45 0 45
45 0 45 0 0 -45z m-1320 0 c0 -28 -6 -30 -44 -15 -43 16 -29 35 27 39 12 1 17
-6 17 -24z"/>
<path d="M863 2426 c-186 -61 -301 -249 -263 -432 33 -161 146 -273 307 -304
160 -32 330 56 405 208 31 62 33 74 33 167 0 90 -3 106 -28 158 -37 74 -111
148 -184 183 -70 33 -200 43 -270 20z m235 -91 c43 -20 52 -28 47 -43 -10 -34
5 -54 39 -50 29 3 33 -1 59 -51 32 -65 34 -87 7 -94 -27 -7 -26 -42 1 -61 24
-17 22 -42 -12 -112 -17 -36 -23 -40 -46 -36 -33 6 -57 -21 -42 -49 8 -16 2
-22 -40 -44 -61 -31 -88 -32 -110 -4 -15 18 -21 20 -39 10 -12 -6 -22 -18 -22
-27 0 -18 -36 -11 -100 19 -40 20 -45 25 -45 57 0 33 -2 35 -33 33 -38 -1 -56
19 -77 91 -13 42 -12 45 5 51 36 11 35 59 -1 70 -23 7 -21 22 13 98 20 43 24
47 48 42 34 -7 55 15 46 49 -5 21 0 27 37 44 63 30 66 30 142 31 55 1 82 -5
123 -24z"/>
<path d="M940 2304 c-6 -14 -10 -74 -10 -133 0 -147 -1 -146 135 -146 93 0
108 2 120 19 10 13 11 24 4 37 -8 16 -22 19 -94 19 l-85 0 0 103 c0 67 -4 107
-12 115 -20 20 -48 14 -58 -14z"/>
<path d="M2271 1436 c-7 -8 -11 -23 -9 -33 3 -17 19 -18 198 -18 l195 0 0 30
0 30 -186 3 c-154 2 -188 0 -198 -12z"/>
<path d="M2704 1436 c-3 -8 -4 -23 -2 -33 3 -15 14 -18 68 -18 54 0 65 3 68
18 6 32 -17 47 -75 47 -37 0 -55 -4 -59 -14z"/>
<path d="M2274 1297 c-17 -10 -18 -39 -2 -55 17 -17 539 -17 556 0 16 16 15
47 0 53 -24 8 -539 10 -554 2z"/>
<path d="M2272 1048 c-7 -7 -12 -19 -12 -28 0 -31 23 -40 100 -40 94 0 125 24
84 64 -19 20 -153 23 -172 4z"/>
<path d="M2506 1045 c-19 -20 -20 -26 -3 -48 11 -16 30 -17 166 -15 134 3 155
5 165 21 8 12 8 22 0 35 -10 15 -31 17 -162 20 -127 2 -153 0 -166 -13z"/>
<path d="M2272 898 c-18 -18 -15 -46 6 -55 9 -4 138 -6 287 -3 249 5 270 6
273 23 9 45 -5 47 -287 47 -194 0 -270 -3 -279 -12z"/>
<path d="M2263 744 c-3 -9 -2 -24 4 -33 9 -14 36 -16 193 -16 157 0 184 2 193
16 6 9 7 24 4 33 -6 14 -30 16 -197 16 -167 0 -191 -2 -197 -16z"/>
</g>
</svg>
