<?xml version="1.0" standalone="no"?>
<!DOCTYPE svg PUBLIC "-//W3C//DTD SVG 20010904//EN"
 "http://www.w3.org/TR/2001/REC-SVG-20010904/DTD/svg10.dtd">
<svg version="1.0" xmlns="http://www.w3.org/2000/svg"
 width="501.000000pt" height="480.000000pt" viewBox="0 0 501.000000 480.000000"
 preserveAspectRatio="xMidYMid meet">

<g transform="translate(0.000000,480.000000) scale(0.100000,-0.100000)"
fill="#eee" stroke="none">
<path d="M2355 4643 c-442 -40 -835 -189 -1181 -449 -97 -73 -285 -253 -369
-354 -565 -680 -674 -1644 -274 -2430 167 -330 384 -586 689 -813 268 -199
615 -342 970 -399 191 -31 489 -31 680 0 605 97 1130 423 1487 922 428 598
530 1396 266 2090 -78 207 -219 449 -362 623 -79 97 -279 290 -371 358 -350
261 -720 404 -1160 449 -90 9 -289 11 -375 3z m373 -324 c378 -41 745 -197
1037 -441 373 -311 610 -756 670 -1258 51 -420 -52 -866 -285 -1229 l-53 -83
-43 133 c-85 264 -225 491 -415 674 -112 107 -174 155 -289 224 -47 28 -90 54
-97 58 -9 6 3 27 38 73 66 86 142 244 168 350 59 248 22 504 -105 721 -58 98
-209 257 -299 314 -327 207 -724 207 -1050 0 -90 -57 -241 -215 -299 -312
-105 -177 -151 -393 -128 -598 21 -189 86 -339 222 -517 l21 -27 -49 -25
c-173 -88 -426 -311 -544 -481 -103 -148 -186 -322 -241 -510 l-24 -80 -49 75
c-135 208 -228 454 -280 740 -22 119 -25 438 -5 550 64 368 170 625 368 892
395 533 1073 829 1731 757z m11 -662 c444 -159 573 -723 241 -1052 -123 -124
-274 -187 -445 -188 -173 -1 -330 62 -450 181 -289 284 -246 757 89 985 118
80 216 107 371 103 99 -2 133 -7 194 -29z m-518 -1511 c198 -71 409 -71 615
-1 l101 35 59 -20 c141 -49 298 -154 434 -290 225 -224 346 -487 376 -811 l6
-75 -78 -64 c-271 -218 -558 -344 -944 -411 -99 -18 -421 -18 -520 0 -387 68
-673 192 -944 411 l-79 64 7 80 c33 429 290 823 670 1032 57 31 175 81 196 83
3 1 48 -15 101 -33z"/>
</g>
</svg>
