<?xml version="1.0" standalone="no"?>
<!DOCTYPE svg PUBLIC "-//W3C//DTD SVG 20010904//EN"
 "http://www.w3.org/TR/2001/REC-SVG-20010904/DTD/svg10.dtd">
<svg version="1.0" xmlns="http://www.w3.org/2000/svg"
 width="399.000000pt" height="400.000000pt" viewBox="0 0 399.000000 400.000000"
 preserveAspectRatio="xMidYMid meet">

<g transform="translate(0.000000,400.000000) scale(0.100000,-0.100000)"
fill="#000000" stroke="none">
<path d="M1332 3178 c-25 -25 -12 -47 49 -83 65 -38 79 -41 97 -23 25 25 12
47 -49 83 -65 38 -79 41 -97 23z"/>
<path d="M1783 3176 c-140 -46 -234 -160 -249 -303 -9 -79 15 -160 71 -243 24
-36 50 -88 59 -116 9 -28 28 -62 41 -74 19 -18 25 -34 25 -66 0 -51 35 -99 80
-109 23 -5 30 -12 30 -30 0 -23 23 -55 40 -55 17 0 40 32 40 55 0 18 7 25 30
30 45 10 80 58 80 109 0 32 6 48 25 66 13 12 32 46 41 74 9 28 36 80 60 116
129 193 75 424 -122 521 -76 38 -181 48 -251 25z m207 -87 c92 -41 148 -121
157 -221 7 -75 -10 -135 -58 -199 -21 -28 -48 -80 -59 -115 l-22 -64 -44 0
-44 0 0 63 c0 60 2 63 33 78 47 23 79 75 75 124 -3 37 -5 40 -33 40 -25 0 -30
-5 -36 -33 -10 -48 -36 -72 -79 -72 -43 0 -69 24 -79 72 -6 28 -11 33 -36 33
-28 0 -30 -3 -33 -40 -4 -49 28 -101 75 -124 31 -15 33 -18 33 -78 l0 -63 -44
0 -44 0 -22 64 c-11 35 -36 84 -55 108 -148 189 -29 448 205 448 44 0 80 -7
110 -21z m-32 -697 c6 -39 -14 -52 -84 -52 -60 0 -64 2 -70 25 -12 49 -1 56
78 53 68 -3 73 -5 76 -26z"/>
<path d="M2328 3154 c-58 -35 -71 -57 -46 -82 18 -18 32 -15 97 23 61 36 74
58 49 83 -18 18 -38 14 -100 -24z"/>
<path d="M1232 2868 c-36 -36 3 -68 83 -68 44 0 68 5 79 16 19 18 19 20 6 45
-9 16 -22 19 -83 19 -44 0 -78 -5 -85 -12z"/>
<path d="M2360 2861 c-13 -25 -13 -27 6 -45 11 -11 35 -16 79 -16 64 0 95 14
95 44 0 26 -26 36 -97 36 -61 0 -74 -3 -83 -19z"/>
<path d="M1380 2587 c-61 -37 -75 -68 -41 -87 18 -9 31 -5 78 22 62 36 79 57
70 82 -10 25 -47 19 -107 -17z"/>
<path d="M2273 2604 c-9 -25 8 -46 70 -82 47 -27 60 -31 78 -22 34 19 20 50
-41 87 -60 36 -97 42 -107 17z"/>
<path d="M1305 2076 c-103 -48 -159 -135 -159 -246 0 -65 23 -128 62 -172 14
-17 12 -18 -40 -18 -38 0 -63 -6 -77 -17 -21 -17 -22 -25 -19 -183 l3 -165 32
-15 c30 -14 33 -19 33 -60 0 -64 18 -94 58 -98 17 -2 36 -11 41 -20 18 -33 23
-110 11 -166 -11 -52 -13 -56 -40 -56 -46 0 -70 -40 -70 -115 0 -48 5 -68 21
-89 l21 -26 653 2 653 3 43 30 c77 55 84 80 84 315 0 177 -2 209 -18 238 l-18
32 35 0 c18 0 43 8 55 18 21 16 22 24 19 182 l-3 165 -31 15 c-29 14 -32 20
-36 73 -5 67 -13 78 -65 86 -35 6 -38 9 -41 44 -3 35 -2 37 28 37 20 0 40 9
57 26 23 23 25 31 21 101 -3 60 -7 78 -23 89 -16 12 -98 14 -495 12 l-475 -3
0 -30 0 -30 458 -3 457 -2 0 -40 0 -40 -575 0 c-632 0 -618 1 -650 -60 -26
-50 -20 -97 19 -136 l34 -34 540 0 c296 0 560 -3 586 -6 44 -6 46 -8 46 -40
l0 -34 -206 -2 c-184 -3 -208 -5 -218 -20 -19 -31 4 -53 63 -56 l51 -3 0 -115
0 -114 -350 0 -350 0 0 115 0 115 199 0 c168 0 202 2 215 16 20 19 20 29 0 48
-13 14 -54 16 -295 16 -258 0 -283 2 -318 20 -106 54 -142 183 -77 280 34 52
93 81 179 89 77 7 103 25 78 55 -22 26 -144 22 -206 -8z m1127 -246 l-4 -40
-513 0 -514 0 -15 22 c-11 15 -12 26 -5 40 9 17 35 18 532 18 l523 0 -4 -40z
m-1132 -385 l0 -115 -80 0 -80 0 0 115 0 115 80 0 80 0 0 -115z m150 0 l0
-115 -35 0 -35 0 0 115 0 115 35 0 35 0 0 -115z m930 0 l0 -115 -35 0 -35 0 0
115 0 115 35 0 35 0 0 -115z m240 0 l0 -115 -80 0 -80 0 0 115 0 115 80 0 80
0 0 -115z m-140 -210 c54 -28 60 -55 60 -255 0 -141 -3 -187 -15 -210 -33 -63
1 -60 -682 -60 l-623 0 0 35 0 35 599 2 c573 3 600 4 620 22 20 18 21 29 21
174 0 131 -3 158 -17 174 -15 17 -41 18 -403 18 -415 0 -421 -1 -405 -49 6
-20 14 -21 378 -23 l372 -3 3 -117 3 -118 -536 0 c-299 0 -535 4 -535 9 0 5 3
23 6 40 l7 31 478 0 c474 0 478 0 489 21 9 16 8 25 -6 40 -16 18 -37 19 -491
19 -263 0 -473 4 -473 9 0 5 -3 22 -6 39 l-6 31 103 3 c91 3 104 5 107 21 8
41 -13 47 -164 47 l-144 0 0 40 0 40 615 0 c531 0 620 -2 645 -15z"/>
</g>
</svg>
