<?xml version="1.0" standalone="no"?>
<!DOCTYPE svg PUBLIC "-//W3C//DTD SVG 20010904//EN"
 "http://www.w3.org/TR/2001/REC-SVG-20010904/DTD/svg10.dtd">
<svg version="1.0" xmlns="http://www.w3.org/2000/svg"
 width="183.000000pt" height="199.000000pt" viewBox="0 0 183.000000 199.000000"
 preserveAspectRatio="xMidYMid meet">

<g transform="translate(0.000000,199.000000) scale(0.100000,-0.100000)"
fill="#eee" stroke="none">
<path d="M805 1869 c-66 -28 -156 -66 -200 -84 -261 -108 -369 -156 -377 -167
-4 -7 -8 -86 -8 -175 0 -156 1 -162 22 -177 30 -21 44 -20 68 4 17 17 20 33
20 126 0 122 -14 116 127 55 l88 -38 3 -82 c2 -70 1 -81 -14 -81 -28 0 -84
-40 -101 -73 -9 -18 -28 -68 -43 -112 l-27 -80 -72 -5 c-57 -4 -76 -9 -87 -24
-30 -42 -2 -86 54 -86 l32 0 -39 -52 c-81 -106 -85 -126 -89 -455 -5 -365 -23
-333 193 -333 191 0 195 2 195 108 l0 67 390 0 390 0 0 -67 c0 -106 4 -108
195 -108 216 0 197 -31 193 323 -4 322 -10 349 -94 453 -24 29 -44 56 -44 59
0 3 13 5 28 5 35 0 52 16 52 51 0 39 -25 53 -98 59 l-66 5 -22 89 c-26 104
-45 134 -102 161 l-42 20 3 80 2 79 148 62 c81 35 155 68 163 74 15 14 18 48
5 68 -9 15 -687 302 -711 302 -8 -1 -69 -23 -135 -51z m390 -170 c132 -55 244
-104 248 -108 11 -11 -143 -74 -167 -68 -12 3 -52 17 -89 31 -151 58 -344 57
-495 0 -37 -14 -76 -28 -88 -31 -25 -6 -179 56 -167 67 12 12 486 209 503 210
8 0 123 -45 255 -101z m-65 -241 l75 -24 3 -87 3 -87 -271 0 -270 0 0 84 0 84
43 17 c125 50 282 55 417 13z m206 -329 c15 -15 53 -151 54 -191 0 -17 -29
-18 -466 -18 -455 0 -465 0 -459 19 47 149 63 187 86 199 18 9 113 11 396 10
329 -3 374 -5 389 -19z m173 -364 c75 -71 94 -124 99 -277 3 -81 0 -128 -6
-128 -5 0 -77 -9 -158 -20 -82 -11 -152 -20 -156 -20 -5 0 -8 48 -8 108 0 123
-10 169 -47 213 -46 54 -71 59 -293 59 -222 0 -247 -5 -293 -59 -37 -44 -47
-90 -47 -213 0 -60 -3 -108 -7 -108 -5 0 -75 9 -157 20 -81 11 -153 20 -158
20 -7 0 -9 49 -6 138 5 155 18 199 83 271 l37 41 535 0 534 0 48 -45z m-365
-190 c20 -20 28 -82 24 -180 l-3 -80 -225 0 -225 0 -3 100 c-5 181 -13 175
228 175 155 0 191 -3 204 -15z m-761 -340 l57 -6 0 -45 0 -44 -85 0 -85 0 0
56 c0 55 0 56 28 50 15 -2 53 -8 85 -11z m1227 -40 l0 -55 -85 0 -85 0 0 44 0
44 73 10 c39 5 78 10 85 11 8 1 12 -16 12 -54z"/>
<path d="M394 565 c-32 -49 19 -103 71 -75 19 10 25 21 25 46 0 55 -66 75 -96
29z"/>
<path d="M1402 578 c-18 -18 -14 -63 8 -83 45 -41 110 18 76 70 -18 27 -63 34
-84 13z"/>
</g>
</svg>
