<?xml version="1.0" standalone="no"?>
<!DOCTYPE svg PUBLIC "-//W3C//DTD SVG 20010904//EN"
 "http://www.w3.org/TR/2001/REC-SVG-20010904/DTD/svg10.dtd">
<svg version="1.0" xmlns="http://www.w3.org/2000/svg"
 width="379.000000pt" height="388.000000pt" viewBox="0 0 379.000000 388.000000"
 preserveAspectRatio="xMidYMid meet">

<g transform="translate(0.000000,388.000000) scale(0.100000,-0.100000)"
fill="#000000" stroke="none">
<path d="M1705 3392 c-94 -29 -145 -58 -145 -85 0 -32 -52 -62 -78 -46 -16 10
-27 8 -63 -13 -64 -38 -143 -58 -225 -58 -91 0 -101 -10 -84 -77 16 -67 46
-111 97 -143 32 -20 40 -30 31 -37 -22 -17 -79 -33 -117 -33 -41 0 -61 -14
-61 -42 0 -27 128 -151 194 -188 50 -29 56 -35 56 -65 0 -30 -3 -33 -36 -40
-23 -4 -51 -21 -79 -49 -51 -52 -68 -110 -53 -182 14 -62 80 -131 136 -140 52
-8 55 -10 86 -74 35 -70 86 -132 142 -173 24 -18 43 -35 44 -38 0 -3 -24 -11
-53 -18 -164 -36 -322 -163 -402 -322 -47 -93 -65 -171 -65 -283 0 -81 3 -97
18 -105 35 -19 52 4 52 72 0 95 18 186 50 255 31 66 88 152 101 152 4 0 118
-121 253 -270 136 -148 255 -274 265 -280 11 -5 37 -10 58 -10 35 0 45 7 141
107 81 86 102 113 100 133 -2 19 -10 26 -29 28 -21 2 -41 -13 -113 -92 -50
-54 -96 -96 -106 -96 -11 0 -114 105 -264 269 l-246 270 30 21 c17 12 34 20
39 18 5 -2 102 -105 215 -230 132 -146 214 -228 226 -228 13 0 94 82 226 228
114 125 210 228 215 230 5 2 22 -6 39 -18 l30 -21 -116 -126 c-93 -102 -114
-132 -112 -152 2 -19 9 -27 28 -29 21 -2 45 19 138 123 62 69 117 125 121 125
13 0 70 -86 101 -152 40 -87 50 -162 50 -385 l0 -193 -110 0 -110 0 0 149 c0
123 -3 152 -16 165 -18 19 -20 19 -45 6 -18 -10 -19 -23 -19 -165 l0 -155
-420 0 -420 0 0 155 c0 146 -1 155 -21 165 -16 9 -25 8 -40 -6 -17 -15 -19
-32 -19 -166 l0 -148 -110 0 -110 0 0 74 c0 80 -13 103 -50 91 -19 -6 -20 -14
-20 -120 0 -94 3 -114 16 -119 20 -8 1528 -8 1548 0 24 9 24 497 0 588 -38
147 -150 298 -278 375 -61 36 -175 81 -206 81 -30 0 -24 12 24 47 56 41 107
103 142 173 31 64 34 66 86 74 56 9 122 78 136 140 15 72 -2 130 -53 182 -28
28 -56 45 -79 49 -34 7 -36 9 -36 47 0 28 9 53 31 85 51 74 72 145 73 253 1
131 -15 182 -79 247 -52 51 -121 83 -181 83 -13 0 -49 18 -80 40 -117 82 -265
109 -389 72z m434 -614 c11 -18 43 -55 70 -83 l51 -49 0 -146 c0 -190 -11
-258 -55 -346 -83 -169 -273 -268 -452 -235 -162 29 -284 131 -343 286 -20 52
-23 84 -28 240 l-5 180 84 17 c96 20 205 70 266 123 48 41 53 37 62 -44 l6
-56 53 1 c66 2 166 49 220 103 20 21 40 39 44 40 3 0 15 -14 27 -31z m-829
-397 c0 -112 -1 -119 -19 -114 -10 3 -32 18 -47 35 -40 40 -41 113 -4 153 20
22 46 39 68 44 1 1 2 -53 2 -118z m1086 77 c24 -24 29 -38 29 -78 0 -40 -5
-54 -29 -78 -15 -17 -37 -32 -47 -35 -18 -5 -19 2 -19 113 0 111 1 118 19 113
10 -3 32 -18 47 -35z m-717 -689 c11 -54 11 -79 1 -138 -10 -59 -15 -70 -24
-60 -7 8 -56 62 -110 121 l-97 106 37 12 c42 14 129 29 159 26 16 -1 23 -13
34 -67z m459 45 l54 -15 -98 -107 c-54 -59 -103 -113 -110 -121 -21 -24 -39
117 -24 193 7 33 14 64 17 69 6 10 93 -1 161 -19z"/>
<path d="M1560 2510 c-17 -32 -8 -141 13 -154 12 -8 22 -8 35 0 21 14 30 137
11 160 -17 20 -47 17 -59 -6z"/>
<path d="M2021 2516 c-19 -23 -10 -146 12 -160 12 -8 22 -8 35 0 20 13 29 122
12 154 -12 23 -42 26 -59 6z"/>
<path d="M1656 2244 c-21 -21 -20 -36 5 -68 71 -90 253 -89 318 3 25 35 26 45
5 65 -21 22 -26 21 -66 -18 -61 -59 -147 -57 -202 4 -30 34 -38 36 -60 14z"/>
</g>
</svg>
