<?xml version="1.0" standalone="no"?>
<!DOCTYPE svg PUBLIC "-//W3C//DTD SVG 20010904//EN"
 "http://www.w3.org/TR/2001/REC-SVG-20010904/DTD/svg10.dtd">
<svg version="1.0" xmlns="http://www.w3.org/2000/svg"
 width="205.000000pt" height="198.000000pt" viewBox="0 0 205.000000 198.000000"
 preserveAspectRatio="xMidYMid meet">

<g transform="translate(0.000000,198.000000) scale(0.100000,-0.100000)"
fill="#eee" stroke="none">
<path d="M825 1893 c-38 -14 -51 -24 -53 -40 -4 -28 4 -28 95 -7 180 42 347
-49 413 -225 l20 -51 -80 0 -80 0 0 28 c0 63 -50 69 -105 12 l-39 -40 -193 0
c-188 0 -193 1 -193 20 0 27 34 94 76 149 26 34 31 47 23 57 -6 8 -18 14 -25
14 -15 0 -99 -108 -109 -140 -4 -11 -14 -20 -23 -20 -28 -1 -105 -39 -135 -68
-64 -61 -72 -89 -75 -292 -3 -179 -2 -187 20 -230 17 -31 37 -50 66 -65 37
-18 41 -24 42 -57 0 -28 -4 -38 -15 -38 -9 0 -37 -11 -63 -24 -55 -28 -97 -87
-107 -149 -4 -23 -15 -53 -25 -67 -29 -41 -60 -108 -60 -129 0 -15 18 -31 35
-31 2 0 18 29 35 64 36 76 100 137 167 160 74 25 84 22 122 -39 45 -71 95
-119 115 -112 26 10 18 37 -23 82 -21 23 -44 52 -50 64 -22 41 23 24 63 -25
21 -25 59 -58 84 -74 l45 -28 -63 -32 c-35 -18 -90 -57 -121 -87 l-58 -55 -3
39 c-2 30 -7 38 -23 38 -18 0 -20 -8 -23 -73 -3 -63 -6 -74 -27 -88 -13 -8
-31 -31 -39 -49 -12 -25 -37 -46 -86 -75 -39 -23 -70 -48 -70 -56 0 -28 33
-28 82 -1 26 15 50 27 53 27 3 0 5 -22 5 -50 l0 -50 -140 0 c-93 0 -140 4
-140 11 0 6 19 80 42 165 33 121 39 157 30 166 -28 28 -46 -7 -95 -192 -46
-174 -48 -185 -31 -197 28 -20 1717 -19 1733 1 10 11 1 56 -39 208 -74 281
-96 347 -130 401 -16 26 -30 53 -30 60 0 34 -25 91 -52 123 -32 36 -95 74
-123 74 -11 0 -15 11 -15 40 0 29 4 40 15 40 26 0 94 70 106 109 6 20 9 61 7
91 -3 51 -5 55 -28 55 -24 0 -25 -3 -28 -65 -4 -113 -34 -140 -155 -140 l-73
0 20 63 c20 59 24 65 71 88 62 30 95 82 95 152 0 63 -39 107 -94 107 -35 0
-36 1 -36 39 0 22 5 43 10 46 6 3 10 19 10 36 0 16 5 29 10 29 20 0 65 -28 92
-57 35 -37 48 -73 48 -136 0 -60 10 -80 36 -75 23 4 29 40 19 115 -12 95 -87
180 -183 206 -35 9 -46 18 -62 53 -32 65 -108 137 -184 174 -60 30 -80 35
-160 37 -68 2 -104 -1 -141 -14z m-275 -331 c0 -15 5 -33 11 -39 6 -6 9 -26 7
-44 -3 -31 -6 -34 -42 -40 -122 -20 -113 -202 12 -260 44 -20 48 -26 68 -85
l20 -64 -74 0 c-78 0 -106 9 -134 44 -15 18 -18 45 -18 198 0 101 5 189 11
205 13 34 44 70 84 94 42 26 55 24 55 -9z m570 -47 c14 -4 20 -15 20 -34 0
-63 14 -94 68 -152 l55 -60 -7 -76 c-5 -49 -16 -93 -31 -123 -29 -57 -102
-124 -170 -156 -100 -47 -206 -24 -308 66 -67 59 -95 119 -103 220 l-7 81 46
47 c52 53 67 86 67 143 l0 39 120 0 c124 0 160 9 190 45 12 15 15 14 27 -9 7
-13 22 -27 33 -31z m-425 -52 c-4 -31 -16 -58 -33 -76 l-27 -28 -7 48 c-14
101 -13 103 33 103 l41 0 -7 -47z m581 -5 c-3 -29 -6 -66 -6 -83 l-1 -30 -34
37 c-29 32 -35 45 -35 83 l0 45 41 0 42 0 -7 -52z m-696 -156 c3 -45 4 -82 2
-82 -2 0 -17 7 -33 16 -29 15 -59 65 -59 99 0 24 39 57 63 53 20 -3 22 -10 27
-86z m810 68 c24 -24 25 -39 6 -85 -11 -26 -57 -65 -78 -65 -5 0 2 142 7 158
7 19 43 14 65 -8z m-810 -435 c0 -31 -3 -35 -25 -35 -22 0 -25 4 -25 35 0 31
3 35 25 35 22 0 25 -4 25 -35z m128 5 c17 -16 32 -32 32 -35 0 -3 -22 -5 -50
-5 l-50 0 0 35 c0 45 22 46 68 5z m552 -5 l0 -35 -50 0 c-27 0 -50 2 -50 5 0
12 67 64 83 65 13 0 17 -8 17 -35z m110 0 c0 -31 -3 -35 -25 -35 -22 0 -25 4
-25 35 0 31 3 35 25 35 22 0 25 -4 25 -35z m-512 -85 c29 -11 70 -20 92 -20
22 0 63 9 92 20 29 11 54 20 54 20 1 0 5 -15 8 -34 8 -41 47 -86 76 -86 28 0
25 -11 -12 -46 -125 -117 -314 -117 -435 -1 -38 36 -41 47 -13 47 29 0 68 45
76 86 3 19 7 34 8 34 0 0 25 -9 54 -20z m-118 -15 c0 -25 -32 -33 -160 -37
-101 -3 -134 -8 -174 -26 -27 -12 -51 -20 -54 -18 -3 4 35 66 41 66 1 0 20 7
42 15 58 21 305 21 305 0z m736 -5 c38 -19 82 -65 71 -76 -2 -2 -26 6 -53 18
-40 18 -73 23 -174 26 -128 4 -160 12 -160 37 0 13 23 15 137 15 117 0 143 -3
179 -20z m-177 -112 c-6 -12 -32 -43 -57 -70 -46 -49 -51 -78 -13 -78 22 0 91
74 123 132 25 43 40 46 110 22 57 -19 121 -73 152 -127 20 -36 146 -471 146
-505 0 -9 -41 -12 -140 -12 l-140 0 0 50 c0 28 3 50 8 50 4 0 25 -12 47 -25
35 -22 75 -33 75 -21 0 2 3 11 6 19 4 11 -15 28 -65 57 -51 30 -76 52 -88 77
-9 19 -26 41 -39 50 -20 13 -24 24 -26 86 -3 64 -5 72 -23 72 -16 0 -21 -8
-23 -38 l-3 -39 -58 55 c-31 30 -85 69 -120 86 l-63 32 46 31 c26 16 63 50 82
74 39 47 85 63 63 22z m-175 -197 l69 -31 -27 -29 -28 -29 -46 21 c-67 31
-217 31 -284 0 l-46 -21 -27 28 -27 28 33 18 c124 64 263 70 383 15z m-429
-141 c-13 -14 -31 -20 -62 -20 -23 0 -43 3 -43 7 0 4 17 24 37 45 l37 38 25
-24 c24 -25 24 -26 6 -46z m615 -12 c0 -4 -20 -8 -43 -8 -31 0 -49 6 -62 20
-18 20 -18 21 5 45 l24 25 38 -37 c21 -20 38 -41 38 -45z m-290 51 c60 -13
150 -73 150 -99 0 -24 -1 -24 -64 -5 -65 20 -247 20 -312 0 -62 -19 -64 -19
-64 4 0 31 88 87 165 104 35 8 79 7 125 -4z m-340 -139 c0 -16 -8 -19 -62 -22
-55 -3 -63 -5 -63 -23 0 -17 8 -20 56 -23 51 -3 56 -5 52 -22 -4 -16 -14 -20
-53 -20 -36 0 -49 -4 -54 -17 -10 -24 21 -45 57 -39 22 4 27 1 25 -12 -3 -14
-18 -18 -81 -20 l-77 -3 0 88 c0 125 7 133 116 133 77 0 84 -2 84 -20z m718 4
c20 -14 22 -23 22 -110 l0 -95 -77 3 c-61 2 -78 6 -81 18 -2 12 7 16 34 17 77
2 73 53 -5 53 -40 0 -50 3 -54 20 -4 17 1 19 52 22 48 3 56 6 56 23 0 18 -8
20 -62 23 -55 3 -63 6 -63 22 0 18 7 20 78 20 54 0 84 -5 100 -16z m-263 -36
c29 -17 22 -17 -184 -18 -118 0 -212 3 -208 6 3 3 23 12 44 20 56 21 307 15
348 -8z m59 -105 c4 -16 9 -36 12 -45 5 -17 -12 -18 -256 -18 -244 0 -261 1
-256 18 3 9 8 29 12 45 l6 27 238 0 238 0 6 -27z"/>
<path d="M992 1378 c-7 -7 -12 -40 -12 -80 0 -63 -2 -69 -24 -78 -33 -12 -41
-29 -24 -47 20 -19 63 -8 88 24 34 43 26 193 -10 193 -3 0 -11 -5 -18 -12z"/>
</g>
</svg>
