<?xml version="1.0" standalone="no"?>
<!DOCTYPE svg PUBLIC "-//W3C//DTD SVG 20010904//EN"
 "http://www.w3.org/TR/2001/REC-SVG-20010904/DTD/svg10.dtd">
<svg version="1.0" xmlns="http://www.w3.org/2000/svg"
 width="337.000000pt" height="295.000000pt" viewBox="0 0 337.000000 295.000000"
 preserveAspectRatio="xMidYMid meet">

<g transform="translate(0.000000,295.000000) scale(0.100000,-0.100000)"
fill="#000000" stroke="none">
<path d="M762 2433 c-39 -19 -70 -59 -78 -102 -10 -49 20 -116 64 -143 l37
-23 845 0 845 0 37 23 c67 42 85 136 38 202 -45 63 -5 60 -922 60 -747 0 -836
-2 -866 -17z"/>
<path d="M749 1617 c-90 -60 -88 -181 4 -237 31 -19 57 -20 878 -20 l846 0 34
23 c90 60 88 181 -4 237 -31 19 -57 20 -878 20 l-846 0 -34 -23z"/>
<path d="M789 831 c-48 -15 -78 -42 -95 -87 -19 -50 -14 -92 16 -134 45 -63 5
-60 920 -60 915 0 875 -3 920 60 47 66 29 160 -38 202 l-37 23 -830 2 c-456 1
-842 -2 -856 -6z"/>
</g>
</svg>
