<?xml version="1.0" standalone="no"?>
<!DOCTYPE svg PUBLIC "-//W3C//DTD SVG 20010904//EN"
 "http://www.w3.org/TR/2001/REC-SVG-20010904/DTD/svg10.dtd">
<svg version="1.0" xmlns="http://www.w3.org/2000/svg"
 width="204.000000pt" height="195.000000pt" viewBox="0 0 204.000000 195.000000"
 preserveAspectRatio="xMidYMid meet">

<g transform="translate(0.000000,195.000000) scale(0.100000,-0.100000)"
fill="#eee">
<path d="M435 1797 c-129 -62 -190 -196 -151 -332 23 -77 98 -154 175 -180 91
-30 241 -1 241 47 0 33 47 121 84 158 30 30 35 42 35 80 1 82 -54 169 -136
217 -67 39 -178 44 -248 10z"/>
<path d="M1396 1805 c-85 -30 -164 -125 -173 -209 -5 -41 -3 -46 36 -82 50
-45 91 -111 107 -173 9 -39 16 -48 45 -58 95 -33 212 -1 284 79 127 141 83
354 -90 434 -58 28 -147 31 -209 9z"/>
<path d="M958 1527 c-26 -8 -55 -20 -65 -27 -94 -72 -133 -141 -133 -240 0
-254 317 -373 482 -181 91 106 90 259 -2 364 -67 76 -185 111 -282 84z"/>
<path d="M323 1231 c-104 -36 -187 -113 -224 -211 -16 -43 -19 -77 -19 -234
l0 -185 52 -15 c124 -35 340 -72 359 -60 5 3 9 40 9 83 0 166 91 311 236 378
30 13 52 28 49 32 -2 4 -19 30 -38 58 -20 29 -39 75 -47 112 l-13 61 -156 0
c-123 -1 -167 -4 -208 -19z"/>
<path d="M1376 1235 c-3 -9 -6 -26 -6 -38 0 -28 -52 -138 -73 -156 -10 -7 -17
-17 -17 -21 0 -4 26 -20 58 -36 78 -38 156 -118 195 -201 27 -59 32 -82 35
-167 l4 -98 72 6 c89 9 184 30 259 58 l58 21 -3 196 c-3 194 -3 197 -32 254
-36 71 -99 130 -174 165 -53 25 -69 27 -213 30 -139 3 -157 2 -163 -13z"/>
<path d="M808 946 c-114 -41 -194 -123 -228 -233 -17 -54 -20 -93 -20 -229 l0
-164 28 -11 c56 -22 241 -59 345 -68 183 -18 405 9 531 62 l48 20 -4 181 c-4
178 -4 182 -35 248 -38 81 -97 141 -172 177 -54 25 -63 26 -256 28 -147 2
-210 -1 -237 -11z"/>
</g>
</svg>
