<?xml version="1.0" standalone="no"?>
<!DOCTYPE svg PUBLIC "-//W3C//DTD SVG 20010904//EN"
 "http://www.w3.org/TR/2001/REC-SVG-20010904/DTD/svg10.dtd">
<svg version="1.0" xmlns="http://www.w3.org/2000/svg"
 width="410.000000pt" height="407.000000pt" viewBox="0 0 410.000000 407.000000"
 preserveAspectRatio="xMidYMid meet">

<g transform="translate(0.000000,407.000000) scale(0.100000,-0.100000)"
fill="#000000" stroke="none">
<path d="M1550 3364 c-148 -32 -264 -121 -325 -249 -42 -90 -55 -152 -55 -273
0 -252 84 -496 216 -630 103 -103 235 -146 378 -123 252 41 413 274 456 660
24 222 -43 425 -173 524 -121 92 -323 129 -497 91z"/>
<path d="M1230 2121 c-19 -10 -82 -35 -140 -56 -58 -21 -123 -49 -145 -64 -48
-32 -96 -100 -125 -179 -43 -115 -91 -402 -93 -562 -2 -118 3 -127 106 -164
187 -67 484 -126 731 -145 99 -8 392 1 403 12 1 2 -13 35 -32 73 -46 93 -65
175 -65 275 0 146 43 272 132 387 104 135 299 232 465 232 24 0 43 4 43 9 0
21 -88 82 -154 107 -39 15 -109 42 -155 60 l-84 32 -53 -43 c-80 -65 -132 -93
-219 -115 -187 -48 -368 -8 -517 114 -31 25 -58 46 -60 46 -2 -1 -19 -9 -38
-19z"/>
<path d="M2385 1798 c-122 -23 -256 -120 -325 -234 -114 -190 -83 -437 77
-597 198 -198 513 -194 703 9 188 201 184 492 -9 685 -122 122 -277 169 -446
137z m170 -221 c10 -15 15 -47 15 -99 l0 -78 80 0 c73 0 83 -3 105 -25 38 -37
37 -88 -1 -122 -22 -20 -36 -23 -105 -23 l-79 0 0 -79 c0 -70 -3 -83 -24 -107
-33 -39 -89 -39 -122 0 -21 24 -24 37 -24 107 l0 79 -79 0 c-70 0 -83 3 -107
24 -39 33 -39 89 0 122 24 21 37 24 107 24 l79 0 0 79 c0 63 4 83 20 104 33
42 104 39 135 -6z"/>
</g>
</svg>
