<?xml version="1.0" standalone="no"?>
<!DOCTYPE svg PUBLIC "-//W3C//DTD SVG 20010904//EN"
 "http://www.w3.org/TR/2001/REC-SVG-20010904/DTD/svg10.dtd">
<svg version="1.0" xmlns="http://www.w3.org/2000/svg"
 width="501.000000pt" height="411.000000pt" viewBox="0 0 501.000000 411.000000"
 preserveAspectRatio="xMidYMid meet">

<g transform="translate(0.000000,411.000000) scale(0.100000,-0.100000)"
fill="#000000" stroke="none">
<path d="M1288 3292 c-105 -105 -118 -122 -118 -152 0 -32 34 -68 487 -522
l488 -488 -488 -488 c-453 -454 -487 -490 -487 -522 0 -30 13 -47 118 -152
105 -105 122 -118 152 -118 32 0 68 34 522 487 l488 488 488 -488 c454 -453
490 -487 522 -487 30 0 47 13 152 118 105 105 118 122 118 152 0 32 -34 68
-487 522 l-488 488 488 488 c453 454 487 490 487 522 0 30 -13 47 -118 152
-105 105 -122 118 -152 118 -32 0 -68 -34 -522 -487 l-488 -488 -488 488
c-454 453 -490 487 -522 487 -30 0 -47 -13 -152 -118z"/>
</g>
</svg>
